# xmcd
#
# Track frame offsets:
#	183
#	24373
#	35343
#	48395
#	62438
#	72005
#	83713
#	92928
#	105265
#	117590
#	126323
#	134140
#	146578
#	160425
#
# Disc length: 2295 seconds
#
# Revision: 2
# Processed by: cddbd v1.5.2PL0 Copyright (c) Steve Scherf et al.
# Submitted via: audiograbber 1.83.01
#
DISCID=c208f50e
DTITLE=AA.VV - 036 - Canzoni all'osteria
DYEAR=1994
DGENRE=Oldies
TTITLE0=Mina - G. Morandi - Melodia del folklore padano
TTITLE1=Coro SAT - Quel mazzolin di fiori
TTITLE2=A. Amici - Osteria N. 1
TTITLE3=Emy e Lia - La società dei magnaccioni
TTITLE4=G. Daffini - Sciur padrun da li beli braghi bianchi
TTITLE5=Gruppo Padano di Piàdena - Pellegrin che vien da Roma
TTITLE6=S. Mantovani - M. Straniero - Mia mama voeul che'l fila
TTITLE7=Coro Stella Alpina - E la violetta la va la va
TTITLE8=Coro Grigna - Vinassa vinassa
TTITLE9=Coro Grigna - Noi suma alpin
TTITLE10=Nuovo Canzoniere Italiano - El piscinin
TTITLE11=F. Buscaglione - Whisky Facile
TTITLE12=Barabàn - Stranot di Lisander/Alessandrina
TTITLE13=Squadra di canto popolare Isola del Cantone - Bacciccin
EXTD=
EXTT0=
EXTT1=
EXTT2=
EXTT3=
EXTT4=
EXTT5=
EXTT6=
EXTT7=
EXTT8=
EXTT9=
EXTT10=
EXTT11=
EXTT12=
EXTT13=
PLAYORDER=
